<svg width="30" height="14" viewBox="0 0 30 14" fill="none" xmlns="http://www.w3.org/2000/svg">
<path d="M8.98203 10.768H4.26603L3.51003 13H0.288025L4.86002 0.364014H8.42403L12.996 13H9.73802L8.98203 10.768ZM8.19003 8.39201L6.62403 3.76601L5.07603 8.39201H8.19003Z" fill="#2CB977"/>
<path d="M22.0375 6.52001C22.7695 6.67601 23.3575 7.04201 23.8015 7.61801C24.2455 8.18201 24.4675 8.83001 24.4675 9.56201C24.4675 10.618 24.0955 11.458 23.3515 12.082C22.6195 12.694 21.5935 13 20.2735 13H14.3875V0.364014H20.0755C21.3595 0.364014 22.3615 0.658014 23.0815 1.24601C23.8135 1.83401 24.1795 2.63201 24.1795 3.64001C24.1795 4.38401 23.9815 5.00201 23.5855 5.49401C23.2015 5.98601 22.6855 6.32801 22.0375 6.52001ZM17.4655 5.47601H19.4815C19.9855 5.47601 20.3695 5.36801 20.6335 5.15201C20.9095 4.92401 21.0475 4.59401 21.0475 4.16201C21.0475 3.73001 20.9095 3.40001 20.6335 3.17201C20.3695 2.94401 19.9855 2.83001 19.4815 2.83001H17.4655V5.47601ZM19.7335 10.516C20.2495 10.516 20.6455 10.402 20.9215 10.174C21.2095 9.93401 21.3535 9.59201 21.3535 9.14801C21.3535 8.70401 21.2035 8.35601 20.9035 8.10401C20.6155 7.85201 20.2135 7.72601 19.6975 7.72601H17.4655V10.516H19.7335Z" fill="#2CB977"/>
<path d="M27.6927 13.144C27.1527 13.144 26.7087 12.988 26.3607 12.676C26.0247 12.352 25.8567 11.956 25.8567 11.488C25.8567 11.008 26.0247 10.606 26.3607 10.282C26.7087 9.95801 27.1527 9.79601 27.6927 9.79601C28.2207 9.79601 28.6527 9.95801 28.9887 10.282C29.3367 10.606 29.5107 11.008 29.5107 11.488C29.5107 11.956 29.3367 12.352 28.9887 12.676C28.6527 12.988 28.2207 13.144 27.6927 13.144Z" fill="#2CB977"/>
</svg>
